Coordinates
version=1
nRows=18
nColumns=19
inDegrees=yes

Units are S.I. units (second, meters, Newtons, ...)
If the header above contains a line with 'inDegrees', this indicates whether rotational values are in degrees (yes) or radians (no).

endheader
time	pelvis_tilt	pelvis_list	pelvis_rotation	pelvis_tx	pelvis_ty	pelvis_tz	hip_flexion_r	hip_adduction_r	hip_rotation_r	knee_angle_r	knee_angle_r_beta	ankle_angle_r	hip_flexion_l	hip_adduction_l	hip_rotation_l	knee_angle_l	knee_angle_l_beta	ankle_angle_l
     13.17333333	     -5.91603204	      7.40104372	      2.16874821	      2.25252483	      0.95339972	      0.98144004	     -9.11081346	    -10.13233287	     -9.30959461	     66.10103905	      1.15368077	    -16.77830011	     27.44904519	      7.89023190	     -6.83838279	     17.02059656	      0.29706545	      1.41348210
     13.18000000	     -5.65251177	      8.02150333	      2.60972834	      2.25165665	      0.94888949	      0.98089253	     -7.87970019	    -10.98944441	     -9.32094704	     69.90616239	      1.22009270	    -16.29046686	     27.59776856	      8.55935000	     -7.36258118	     19.99053086	      0.34890058	      1.97356600
     13.18666667	     -5.38516202	      8.62364889	      3.05600485	      2.25058688	      0.94420839	      0.98044860	     -6.55001458	    -11.80771621	     -9.23291704	     73.68802323	      1.28609862	    -15.79127479	     27.73313061	      9.19740629	     -7.74184634	     23.19382120	      0.40480855	      2.86519167
     13.19333333	     -4.74440769	      9.26554761	      3.54204703	      2.24937288	      0.93988833	      0.98005032	     -5.59916115	    -12.67315155	     -9.25884584	     77.33616049	      1.34977063	    -15.29731045	     27.35117379	      9.90979730	     -7.87714341	     26.38183136	      0.46044982	      4.07836297
     13.20000000	     -4.85850872	      9.56985869	      4.04279339	      2.24773987	      0.93483201	      0.97967008	     -3.55172549	    -13.10719041	     -8.85982678	     81.06694423	      1.41488509	    -14.77022502	     27.76824536	     10.30779623	     -7.75240913	     29.67454986	      0.51791860	      5.64793493
     13.20666667	     -4.07480508	     10.13578563	      4.51648024	      2.24619034	      0.93099233	      0.97939312	     -2.57142916	    -13.82998809	     -8.71380504	     84.47117973	      1.47430021	    -14.15493364	     26.92636317	     11.00946201	     -7.39607563	     32.54243989	      0.56797272	      7.54459672
     13.21333333	     -4.33981010	     10.15854636	      5.03716229	      2.24412843	      0.92649112	      0.97899316	     -0.10163383	    -13.92372262	     -8.14741483	     87.92809858	      1.53463483	    -13.50310730	     27.15616502	     11.23589912	     -6.77004049	     35.32122642	      0.61647170	      9.50704438
     13.22000000	     -3.69189882	     10.47224420	      5.46364234	      2.24219413	      0.92349239	      0.97869375	      1.29730232	    -14.30332865	     -7.73134771	     91.00351512	      1.58831097	    -12.75228508	     26.04789196	     11.73581931	     -6.05017068	     37.50628920	      0.65460824	     11.68327119
     13.22666667	     -3.96899955	     10.31539448	      5.88170957	      2.23993935	      0.92006598	      0.97832637	      4.01719031	    -14.16523789	     -6.98305663	     94.03816963	      1.64127568	    -12.00369803	     25.84270015	     11.79517450	     -5.20976510	     39.49293851	      0.68928181	     13.84785799
     13.23333333	     -3.87198042	     10.23785837	      6.15904520	      2.23781002	      0.91771330	      0.97805028	      6.35517930	    -14.07150065	     -6.20044970	     96.73082590	      1.68827140	    -11.16677667	     24.93329038	     11.86286682	     -4.40967163	     40.92699102	      0.71431075	     15.99304650
     13.24000000	     -3.80421988	     10.06516059	      6.33563748	      2.23575508	      0.91603289	      0.97779929	      8.81251525	    -13.84833994	     -5.33462514	     99.13227936	      1.73018467	    -10.32157349	     23.81707410	     11.78666725	     -3.63400279	     41.90427545	      0.73136758	     18.01947953
     13.24666667	     -3.78425486	      9.81549891	      6.40050065	      2.23388092	      0.91499581	      0.97756640	     11.37817709	    -13.50915640	     -4.39683160	    101.21459730	      1.76652797	     -9.47510031	     22.51706431	     11.57140943	     -2.92862486	     42.43358496	      0.74060577	     19.85520003
     13.25333333	     -3.55542191	      9.53429822	      6.46876849	      2.23242282	      0.91491072	      0.97721549	     13.60806563	    -13.16767981	     -3.65524790	    102.86848088	      1.79539369	     -8.53841009	     20.69145527	     11.30740840	     -2.13764055	     42.44111641	      0.74073722	     21.56754712
     13.26000000	     -3.91296659	      9.10466492	      6.20660541	      2.23085994	      0.91474693	      0.97718415	     16.72594221	    -12.51555500	     -2.45664469	    104.34680433	      1.82119530	     -7.84208713	     19.45134259	     10.77082737	     -1.78355849	     42.23881511	      0.73720640	     22.71691137
     13.26666667	     -3.80512092	      8.66324112	      6.25834937	      2.22972319	      0.91581971	      0.97667949	     19.01886892	    -12.00826367	     -1.90132200	    105.30823139	      1.83797537	     -7.06992531	     17.41692162	     10.34995291	     -0.88432455	     41.57259064	      0.72557859	     23.62647478
     13.27333333	     -4.02598969	      8.20827456	      5.61292047	      2.22909254	      0.91702998	      0.97688400	     21.85289940	    -11.22065015	     -0.67583774	    106.02247686	      1.85044130	     -6.43803142	     15.58433060	      9.63684368	     -1.00139698	     40.52062751	      0.70721837	     24.22938368
     13.28000000	     -4.25724490	      7.59009035	      5.63502915	      2.22873871	      0.91889904	      0.97622622	     24.30584617	    -10.61389178	     -0.39366811	    106.26371365	      1.85465168	     -5.75974525	     13.61550778	      9.02164523	     -0.23034896	     39.27517651	      0.68548114	     24.37243216
     13.28666667	     -4.58922295	      6.94589346	      5.43511216	      2.22866192	      0.92115598	      0.97583796	     26.83638746	     -9.90834112	     -0.03220416	    106.19585318	      1.85346729	     -5.22661710	     11.66017399	      8.31391715	      0.26197856	     37.77730154	      0.65933829	     24.11693322
